<?xml version="1.0" encoding="UTF-8"?>
<svg id="Layer_2" data-name="Layer 2" xmlns="http://www.w3.org/2000/svg" xmlns:xlink="http://www.w3.org/1999/xlink" viewBox="0 0 35.23 35.23">
  <defs>
    <style>
      .cls-1 {
        fill: url(#linear-gradient);
      }

      .cls-1, .cls-2, .cls-3, .cls-4 {
        stroke-width: 0px;
      }

      .cls-2 {
        fill: url(#linear-gradient-2);
      }

      .cls-3 {
        fill: url(#linear-gradient-3);
      }

      .cls-4 {
        fill: url(#linear-gradient-4);
      }
    </style>
    <linearGradient id="linear-gradient" x1="16.6" y1="6.78" x2="28.82" y2="18.3" gradientUnits="userSpaceOnUse">
      <stop offset="0" stop-color="#6a2f93"/>
      <stop offset="0" stop-color="#6a2f94"/>
      <stop offset=".18" stop-color="#8138c2"/>
      <stop offset=".34" stop-color="#923fe2"/>
      <stop offset=".47" stop-color="#9c43f6"/>
      <stop offset=".55" stop-color="#a045fe"/>
      <stop offset=".61" stop-color="#a544f1"/>
      <stop offset=".71" stop-color="#b343d0"/>
      <stop offset=".85" stop-color="#ca429a"/>
      <stop offset="1" stop-color="#e84057"/>
    </linearGradient>
    <linearGradient id="linear-gradient-2" x1="18.17" y1="4.8" x2="30.67" y2="16.81" gradientUnits="userSpaceOnUse">
      <stop offset="0" stop-color="#6a2f93"/>
      <stop offset=".15" stop-color="#7d36b9"/>
      <stop offset=".33" stop-color="#903ede"/>
      <stop offset=".47" stop-color="#9b43f5"/>
      <stop offset=".55" stop-color="#a045fe"/>
      <stop offset=".61" stop-color="#a544f1"/>
      <stop offset=".71" stop-color="#b343d0"/>
      <stop offset=".85" stop-color="#ca429a"/>
      <stop offset="1" stop-color="#e84057"/>
    </linearGradient>
    <linearGradient id="linear-gradient-3" x1="6.44" y1="16.7" x2="18.54" y2="28.67" xlink:href="#linear-gradient-2"/>
    <linearGradient id="linear-gradient-4" x1="4.57" y1="18.43" x2="17.06" y2="30.43" xlink:href="#linear-gradient-2"/>
  </defs>
  <g id="Layer_1-2" data-name="Layer 1">
    <g>
      <g>
        <path class="cls-1" d="M24.74,5.91c-.28.09-.57.14-.87.14s-.59-.05-.87-.14l-7.77,7.77,6.32,6.32,7.77-7.77c-.09-.28-.14-.57-.14-.87s.05-.59.14-.87l-4.59-4.59Z"/>
        <path class="cls-2" d="M34.95,9.28l-2.76-2.76c-.97.68-2.32.58-3.19-.28-.87-.87-.96-2.22-.28-3.19l-2.76-2.76c-.86.57-2.02.47-2.77-.28l-10.07,10.07c.56.56.75,1.35.58,2.06l.71.71,8.4-8.4c.29.29.67.44,1.06.44s.77-.15,1.06-.44l5.86,5.86c-.58.58-.58,1.53,0,2.11l-8.4,8.4.71.71c.72-.17,1.5.02,2.06.58l10.07-10.07c-.75-.75-.85-1.92-.28-2.77Z"/>
      </g>
      <g>
        <path class="cls-3" d="M10.49,29.33c.28-.09.57-.14.87-.14s.59.05.87.14l7.77-7.77-6.32-6.32-7.77,7.77c.09.28.14.57.14.87s-.05.59-.14.87l4.59,4.59Z"/>
        <path class="cls-4" d="M21.49,23.06l-.67-.67-8.4,8.4c-.29-.29-.67-.44-1.06-.44s-.77.15-1.06.44l-5.86-5.86c.58-.58.58-1.53,0-2.11l8.4-8.4-.67-.67c-.75.22-1.59.03-2.18-.56L0,23.18c.75.75.85,1.92.28,2.77l2.76,2.76c.97-.68,2.32-.58,3.19.28.87.87.96,2.22.28,3.19l2.76,2.76c.86-.57,2.02-.47,2.77.28l9.99-9.99c-.59-.59-.78-1.43-.56-2.18Z"/>
      </g>
    </g>
  </g>
</svg>